<svg width="14" height="15" viewBox="0 0 14 15" fill="none" xmlns="http://www.w3.org/2000/svg">
<path fill-rule="evenodd" clip-rule="evenodd" d="M7.5946 0.694564C7.85582 0.807957 8.01101 1.07999 7.97569 1.36255L7.42435 5.7733H12.471C12.7199 5.7733 12.9463 5.91728 13.0519 6.14269C13.1574 6.36809 13.1231 6.63422 12.9637 6.82543L6.54902 14.5231C6.36671 14.7419 6.06201 14.8143 5.80079 14.7009C5.53958 14.5875 5.38438 14.3154 5.4197 14.0329L5.97105 9.62214H0.92444C0.675537 9.62214 0.449102 9.47815 0.343529 9.25275C0.237955 9.02734 0.272303 8.76122 0.431647 8.57L6.84638 0.872327C7.02868 0.653563 7.33338 0.581172 7.5946 0.694564ZM2.29401 8.33919H6.6977C6.88169 8.33919 7.05683 8.4182 7.1786 8.55614C7.30036 8.69407 7.35704 8.87766 7.33422 9.06023L6.96413 12.021L11.1014 7.05624H6.6977C6.5137 7.05624 6.33857 6.97724 6.2168 6.8393C6.09503 6.70136 6.03836 6.51778 6.06118 6.33521L6.43127 3.37448L2.29401 8.33919Z" fill="#BDBDBD"/>
</svg>
