<svg width="26" height="19" viewBox="0 0 26 19" fill="none" xmlns="http://www.w3.org/2000/svg">
<path d="M5.63214 10.5525C5.30882 10.5525 4.98551 10.4448 4.76996 10.1215C4.33887 9.69037 4.44665 8.93596 4.87773 8.61264C9.7275 4.62506 16.6249 4.62506 21.4747 8.61264C21.9058 9.04373 22.0136 9.69037 21.5825 10.1215C21.1514 10.5525 20.5047 10.6603 20.0737 10.2292C16.0861 6.88828 10.2664 6.88828 6.27878 10.2292C6.171 10.5525 5.84769 10.5525 5.63214 10.5525Z" fill="#0074D9"/>
<path d="M1.75233 6.78051C1.42902 6.78051 1.1057 6.67274 0.890154 6.45719C0.459064 6.0261 0.566837 5.37947 0.997927 4.94838C7.89536 -1.08688 18.3493 -1.08688 25.2467 4.94838C25.6778 5.37947 25.7856 6.0261 25.3545 6.45719C24.9234 6.88828 24.2768 6.99606 23.8457 6.56497C17.7027 1.17634 8.542 1.17634 2.50674 6.56497C2.2912 6.67274 2.07565 6.78051 1.75233 6.78051Z" fill="#0074D9"/>
<path d="M16.9482 14.4324C16.7327 14.4324 16.5172 14.3246 16.3016 14.2168C14.4695 12.9235 11.8829 12.9235 10.0508 14.2168C9.51195 14.5401 8.86531 14.4324 8.542 14.0013C8.21868 13.4624 8.32645 12.8158 8.75754 12.4925C11.3441 10.6603 14.9006 10.6603 17.4871 12.4925C18.026 12.8158 18.1337 13.4624 17.7027 14.0013C17.5949 14.3246 17.2716 14.4324 16.9482 14.4324Z" fill="#0074D9"/>
<path d="M13.1762 18.6355C13.0684 18.6355 12.8529 18.6355 12.7451 18.5277C12.6374 18.5277 12.5296 18.4199 12.4218 18.3122C12.2063 18.0966 12.0985 17.8811 12.0985 17.5578C12.0985 17.45 12.0985 17.2344 12.2063 17.1267C12.314 17.0189 12.314 16.9111 12.4218 16.8033C12.8529 16.3723 13.4995 16.3723 13.9306 16.8033C14.1462 17.0189 14.2539 17.3422 14.2539 17.5578C14.2539 17.8811 14.1462 18.0966 13.9306 18.3122C13.7151 18.5277 13.4995 18.6355 13.1762 18.6355Z" fill="#0074D9"/>
</svg>
