<svg width="25" height="22" viewBox="0 0 25 22" fill="none" xmlns="http://www.w3.org/2000/svg">
<path fill-rule="evenodd" clip-rule="evenodd" d="M3.59093 6.6818C2.99471 6.6818 2.51139 7.16513 2.51139 7.76135V18.5568C2.51139 19.153 2.99471 19.6364 3.59093 19.6364H20.8637C21.4599 19.6364 21.9432 19.153 21.9432 18.5568V7.76135C21.9432 7.16513 21.4599 6.6818 20.8637 6.6818H3.59093ZM0.352295 7.76135C0.352295 5.9727 1.80228 4.52271 3.59093 4.52271H20.8637C22.6523 4.52271 24.1023 5.9727 24.1023 7.76135V18.5568C24.1023 20.3455 22.6523 21.7954 20.8637 21.7954H3.59093C1.80228 21.7954 0.352295 20.3455 0.352295 18.5568V7.76135Z" fill="#0074D9"/>
<path fill-rule="evenodd" clip-rule="evenodd" d="M7.77814 1.1531C8.3855 0.545741 9.20926 0.204529 10.0682 0.204529H14.3864C15.2453 0.204529 16.0691 0.545741 16.6764 1.1531C17.2838 1.76047 17.625 2.58423 17.625 3.44317V20.7159C17.625 21.3121 17.1417 21.7954 16.5455 21.7954C15.9493 21.7954 15.4659 21.3121 15.4659 20.7159V3.44317C15.4659 3.15685 15.3522 2.88227 15.1497 2.67981C14.9473 2.47736 14.6727 2.36362 14.3864 2.36362H10.0682C9.78189 2.36362 9.5073 2.47736 9.30485 2.67981C9.1024 2.88227 8.98866 3.15685 8.98866 3.44317V20.7159C8.98866 21.3121 8.50533 21.7954 7.90911 21.7954C7.3129 21.7954 6.82957 21.3121 6.82957 20.7159V3.44317C6.82957 2.58423 7.17078 1.76047 7.77814 1.1531Z" fill="#0074D9"/>
</svg>
