<svg width="25" height="26" viewBox="0 0 25 26" fill="none" xmlns="http://www.w3.org/2000/svg">
<path fill-rule="evenodd" clip-rule="evenodd" d="M11.6977 2.53056C11.6974 2.53072 11.697 2.53088 11.6967 2.53104L3.07731 6.84075L3.07493 6.84194C2.89537 6.93116 2.74427 7.0687 2.6386 7.2391C2.53297 7.40944 2.47693 7.60586 2.47679 7.80629C2.47679 7.80623 2.47679 7.80636 2.47679 7.80629V18.0734C2.47539 18.2742 2.53012 18.4715 2.63486 18.6428C2.73942 18.8139 2.88965 18.9525 3.06863 19.0429C3.06833 19.0427 3.06892 19.043 3.06863 19.0429L11.6883 23.3527C11.8381 23.4276 12.0035 23.4668 12.1709 23.4668C12.3383 23.4668 12.5035 23.4278 12.6532 23.3529L21.2753 19.0418L21.2777 19.0406C21.4573 18.9514 21.6084 18.8139 21.714 18.6435C21.8197 18.4731 21.8757 18.2766 21.8758 18.0761V7.8065C21.8757 7.606 21.8197 7.4095 21.714 7.2391C21.6084 7.0687 21.4572 6.93116 21.2777 6.84194L21.2753 6.84075L12.6559 2.53104C12.6556 2.53088 12.6553 2.53072 12.6549 2.53056C12.5062 2.45682 12.3424 2.41845 12.1763 2.41845C12.0103 2.41845 11.8465 2.45682 11.6977 2.53056ZM13.1355 1.5659L13.6151 0.600768C13.168 0.37861 12.6755 0.263 12.1763 0.263C11.6771 0.263 11.1846 0.37861 10.7375 0.600768L10.7352 0.601958L2.11575 4.91167C2.11531 4.91189 2.11487 4.91211 2.11442 4.91233C1.57634 5.18001 1.12351 5.59239 0.806769 6.10316C0.48977 6.61436 0.321661 7.20385 0.321341 7.80536L0.321341 18.0625C0.317925 18.6636 0.482164 19.2538 0.795654 19.7668C1.10986 20.281 1.5615 20.6971 2.09961 20.9682L2.10259 20.9697L10.7241 25.2805C11.1733 25.5052 11.6686 25.6223 12.1709 25.6223C12.6731 25.6223 13.1684 25.5053 13.6175 25.2806C13.6176 25.2806 13.6174 25.2807 13.6175 25.2806L22.2369 20.9709C22.2372 20.9707 22.2376 20.9705 22.2379 20.9704C22.7761 20.7027 23.2291 20.2903 23.5458 19.7794C23.8628 19.2682 24.031 18.6787 24.0313 18.0772V7.80593C24.031 7.20442 23.8628 6.61436 23.5458 6.10316C23.2291 5.5924 22.7763 5.18004 22.2382 4.91235C22.2378 4.91212 22.2373 4.91189 22.2369 4.91167L13.6175 0.601958L13.1355 1.5659Z" fill="#0074D9"/>
<path fill-rule="evenodd" clip-rule="evenodd" d="M0.779991 6.16001C1.04618 5.62764 1.69354 5.41185 2.22591 5.67804L12.1763 10.6532L22.1267 5.67804C22.6591 5.41185 23.3064 5.62764 23.5726 6.16001C23.8388 6.69239 23.623 7.33975 23.0907 7.60593L12.6583 12.8221C12.3549 12.9738 11.9977 12.9738 11.6943 12.8221L1.26196 7.60593C0.729592 7.33975 0.513805 6.69239 0.779991 6.16001Z" fill="#0074D9"/>
<path fill-rule="evenodd" clip-rule="evenodd" d="M12.1763 10.7804C12.7715 10.7804 13.254 11.263 13.254 11.8582V24.5322C13.254 25.1274 12.7715 25.6099 12.1763 25.6099C11.5811 25.6099 11.0986 25.1274 11.0986 24.5322V11.8582C11.0986 11.263 11.5811 10.7804 12.1763 10.7804Z" fill="#0074D9"/>
<path fill-rule="evenodd" clip-rule="evenodd" d="M5.82374 3.29327C6.08993 2.76089 6.73729 2.54511 7.26966 2.81129L18.0469 8.19991C18.5793 8.4661 18.7951 9.11346 18.5289 9.64583C18.2627 10.1782 17.6153 10.394 17.083 10.1278L6.30572 4.73918C5.77334 4.473 5.55756 3.82564 5.82374 3.29327Z" fill="#0074D9"/>
</svg>
