<svg width="56" height="46" viewBox="0 0 56 46" fill="none" xmlns="http://www.w3.org/2000/svg">
<path fill-rule="evenodd" clip-rule="evenodd" d="M26.0058 5.54747C25.6018 5.46759 25.1842 5.48878 24.7903 5.60916C24.3964 5.72953 24.0384 5.94537 23.748 6.23748C22.7746 7.21668 21.1917 7.22137 20.2125 6.24795C19.2333 5.27454 19.2286 3.69163 20.202 2.71243C21.0732 1.83611 22.1473 1.1886 23.329 0.827464C24.5107 0.466329 25.7634 0.402758 26.9755 0.642401C28.1877 0.882044 29.3219 1.41748 30.2773 2.2011C31.2327 2.98473 31.9797 3.99227 32.4519 5.13416C32.924 6.27604 33.1067 7.5169 32.9838 8.74642C32.8608 9.97594 32.4359 11.156 31.747 12.1818C31.058 13.2075 30.1263 14.0472 29.0346 14.6261C27.9447 15.204 26.7291 15.5042 25.4955 15.5C25.4935 15.5 25.4915 15.4999 25.4895 15.4999L25.5 13V15.5H25.4955H3C1.61929 15.5 0.5 14.3807 0.5 13C0.5 11.6192 1.61929 10.5 3 10.5H25.5105C25.9224 10.5017 26.3283 10.4016 26.6922 10.2087C27.0561 10.0157 27.3667 9.73584 27.5963 9.39393C27.826 9.05201 27.9676 8.65865 28.0086 8.24881C28.0496 7.83897 27.9887 7.42535 27.8313 7.04472C27.6739 6.66409 27.4249 6.32824 27.1064 6.06704C26.788 5.80583 26.4099 5.62735 26.0058 5.54747ZM47.4723 13.0724C46.868 12.9519 46.2433 12.9821 45.6534 13.1605C45.0636 13.3388 44.5268 13.6598 44.0905 14.095C43.113 15.07 41.5301 15.068 40.555 14.0905C39.5799 13.1129 39.5819 11.53 40.5595 10.555C41.5774 9.53955 42.83 8.79065 44.2062 8.3745C45.5825 7.95834 47.0401 7.88774 48.4502 8.16895C49.8602 8.45017 51.1792 9.07452 52.2906 9.98679C53.4019 10.8991 54.2713 12.0711 54.8219 13.3994C55.3725 14.7276 55.5872 16.171 55.4472 17.602C55.3072 19.033 54.8167 20.4074 54.0192 21.6037C53.2216 22.8001 52.1415 23.7814 50.8744 24.461C49.6073 25.1405 48.1923 25.4974 46.7545 25.5L46.75 25.5H3C1.61929 25.5 0.5 24.3807 0.5 23C0.5 21.6192 1.61929 20.5 3 20.5H46.7473C47.3629 20.4986 47.9687 20.3456 48.5112 20.0547C49.0542 19.7634 49.5171 19.3429 49.859 18.8302C50.2008 18.3174 50.411 17.7284 50.471 17.1151C50.531 16.5019 50.4389 15.8832 50.203 15.314C49.967 14.7448 49.5944 14.2424 49.1181 13.8515C48.6419 13.4605 48.0766 13.1929 47.4723 13.0724ZM32.9951 30.5C34.2288 30.4957 35.4446 30.7959 36.5346 31.3739C37.6263 31.9527 38.558 32.7924 39.247 33.8181C39.9359 34.8439 40.3608 36.024 40.4838 37.2535C40.6067 38.483 40.424 39.7239 39.9519 40.8658C39.4797 42.0076 38.7327 43.0152 37.7773 43.7988C36.8219 44.5824 35.6877 45.1179 34.4755 45.3575C33.2634 45.5972 32.0107 45.5336 30.829 45.1725C29.6473 44.8113 28.5732 44.1638 27.702 43.2875C26.7286 42.3083 26.7333 40.7254 27.7125 39.752C28.6917 38.7785 30.2746 38.7832 31.248 39.7624C31.5384 40.0545 31.8964 40.2704 32.2903 40.3908C32.6842 40.5111 33.1018 40.5323 33.5058 40.4524C33.9099 40.3726 34.288 40.1941 34.6064 39.9329C34.9249 39.6717 35.1739 39.3358 35.3313 38.9552C35.4887 38.5746 35.5496 38.1609 35.5086 37.7511C35.4676 37.3413 35.326 36.9479 35.0963 36.606C34.8667 36.2641 34.5561 35.9842 34.1922 35.7912C33.8283 35.5983 33.4224 35.4982 33.0105 35.4999L33 35.5H3C1.61929 35.5 0.5 34.3807 0.5 33C0.5 31.6192 1.61929 30.5 3 30.5H32.9951Z" fill="#0074D9"/>
</svg>
